<svg id="Layer_1" data-name="Layer 1" xmlns="http://www.w3.org/2000/svg" viewBox="0 0 100 100"><title>branch</title><path d="M76.08,13.79A11.91,11.91,0,1,0,59.77,24.84c-.46,5.05-3.78,6.85-10.18,9.86C42,38.28,31.48,43.2,31.48,59.62V75.14a11.91,11.91,0,1,0,8.68,0V59.62C40.16,48.71,46,46,53.28,42.56a57.59,57.59,0,0,0,6.56-3.45v7.67a11.9,11.9,0,1,0,8.68,0V24.86A11.91,11.91,0,0,0,76.08,13.79ZM35.82,89.44a3.23,3.23,0,1,1,3.23-3.23A3.23,3.23,0,0,1,35.82,89.44ZM64.18,10.56A3.23,3.23,0,1,1,61,13.79,3.23,3.23,0,0,1,64.18,10.56Zm0,50.52a3.22,3.22,0,1,1,3.22-3.22A3.23,3.23,0,0,1,64.18,61.08Z"/></svg>