<svg id="Layer_1" data-name="Layer 1" xmlns="http://www.w3.org/2000/svg" viewBox="0 0 100 100"><title>change-seed</title><path d="M46.93,55.91c-.6-9.36-.5-18.53-4.91-26.89-2.92-5.53-7.61-8.26-13.78-8.61a42.64,42.64,0,0,0-14.1,1.87c-3.91,1.1-8.1-.51-5.37-4.68C17.82,6.36,29.2.37,44,2.56,58.21,4.65,65.36,14,69,26.87c2.26,8,3,16.21,3.2,24.49,0,1.41,0,2.83,0,4.55h9.4c1.78,0,3.56,0,5.34,0a4.54,4.54,0,0,1,3.52,7.69Q80.38,75.22,70.34,86.9L62.8,95.63c-2.56,2.94-5.37,2.93-7.94,0Q41.32,79.89,27.76,64.21c-1.2-1.4-2.22-2.82-1.74-4.8.56-2.25,2.27-3.48,5-3.49C36.19,55.89,41.38,55.91,46.93,55.91Z"/></svg>