<svg id="Layer_1" data-name="Layer 1" xmlns="http://www.w3.org/2000/svg" viewBox="0 0 100 100"><title>pause</title><path d="M.5,49.84A49.5,49.5,0,1,1,50.06,99.33,49.37,49.37,0,0,1,.5,49.84Zm46.3,0c0-5.09,0-10.18,0-15.27,0-2.68-1.24-3.91-3.91-3.93s-5.45,0-8.17,0-3.88,1.24-3.88,3.79q0,15.36,0,30.72c0,2.57,1.27,3.81,3.83,3.84s5.33,0,8,0c3,0,4.15-1.19,4.16-4.24C46.81,59.8,46.8,54.83,46.8,49.85Zm6.4,0c0,5,0,10.06,0,15.09,0,2.89,1.21,4.07,4.13,4.09,2.66,0,5.33,0,8,0s3.85-1.25,3.85-3.81q0-15.36,0-30.72c0-2.56-1.28-3.79-3.85-3.82s-5.21,0-7.81,0c-3.16,0-4.3,1.14-4.31,4.27C53.19,39.88,53.2,44.86,53.2,49.83Z"/></svg>