<svg height="20" width="20" id="Layer_1" data-name="Layer 1" xmlns="http://www.w3.org/2000/svg" viewBox="0 0 331.98 442.17"><title>pencil</title><line x1="46.17" y1="303.81" x2="257.17" y2="5.81" style="fill:none;stroke:#000;stroke-linecap:round;stroke-linejoin:round;stroke-width:7.619999885559082px"/><line x1="117.17" y1="347.81" x2="328.17" y2="49.81" style="fill:none;stroke:#000;stroke-linecap:round;stroke-linejoin:round;stroke-width:7.619999885559082px"/><path d="M343,36c7-1,14-2,20-2s12,0,17,2,9,5,13,8,7,7,10,11,4,8,6,12c2,5,3,9,5,13" transform="translate(-85.83 -30.19)" style="fill:none;stroke:#000;stroke-linecap:round;stroke-linejoin:round;stroke-width:7.619999885559082px"/><polygon points="121.17 303.81 117.17 347.81 7.17 431.81 46.17 303.81 85.17 281.81 83.17 324.81 121.17 303.81" style="fill:none;stroke:#000;stroke-width:7.619999885559082px"/><path d="M109,410c4,0,8-1,11-1s6,0,8,2c2,1,3,3,4,5a20.92,20.92,0,0,1,4,6,12.68,12.68,0,0,1,1,6" transform="translate(-85.83 -30.19)" style="fill:none;stroke:#000;stroke-width:7.619999885559082px"/><path d="M120,409c-3,0-7,1-11,1L93,462l44-34a12.68,12.68,0,0,0-1-6,20.92,20.92,0,0,0-4-6c-1-2-2-4-4-5C126,409,123,409,120,409Z" transform="translate(-85.83 -30.19)" style="stroke:#000;stroke-width:7.619999885559082px"/><path d="M171,312l-2,43,38-21-4,44L414,80l-5-13c-2-4-3-8-6-12s-6-8-10-11-8-6-13-8-11-2-17-2-13,1-20,2L132,334Z" transform="translate(-85.83 -30.19)"/></svg>
