<svg height="20" width="20" id="Layer_1" data-name="Layer 1" xmlns="http://www.w3.org/2000/svg" viewBox="0 0 200 200"><defs><style>.cls-1{fill:#fff;}</style></defs><title>pen</title><path d="M90.17,113.92Q61.54,83.08,32.86,52.28C29.35,48.52,25,45.48,21.7,41.59c-4.51-5.26-9.11-10.65-12.47-16.66C4.79,17,8.27,8.44,16.78,5,24.9,1.67,30.53,2.08,36,8.64c3.62,4.33,7.9,8,11,13,3.6,5.83,8.55,10.87,13.2,16C76.06,55.12,92.16,72.47,108,90c14.48,16.07,28.74,32.33,43.09,48.52,3.66,4.13,7.5,8.13,10.81,12.52,2.35,3.11,3.89,6.82,5.91,10.19,5.21,8.7,10.55,17.32,15.7,26.06a27.21,27.21,0,0,1,2.53,6.53,3.17,3.17,0,0,1-.92,2.6c-.32.31-1.73-.17-2.38-.65-5-3.68-9.86-7.5-14.86-11.15-3.45-2.52-7.2-4.64-10.55-7.28-8.56-6.75-17.63-13-25.29-20.71C118,142.56,104.77,127.59,91.19,113Zm60.65,40.48c-1.64-2.1-3-4-4.55-5.81-10.84-12.37-21.52-24.89-32.62-37-22.6-24.7-45.43-49.19-68.18-73.75-2.42-2.61-3.1-2.36-6.93,1-2.09,1.85-3,3.31-.58,5.76,6.43,6.61,12.59,13.49,19,20.14.88.91,2.5,1.06,3.66,1.76a5.51,5.51,0,0,1,1.9,1.91c.87,1.57,1.17,3.6,2.34,4.84,24.31,25.69,48.78,51.23,73,77,3.51,3.74,6.6,6.87,12.09,4.56ZM45.55,34.42c1.21,1.46,1.93,2.43,2.74,3.31,6.66,7.2,13.28,14.43,20,21.53,1.41,1.49,3.64,2.24,4.92,3.8,2.68,3.27,4.65,7.13,7.46,10.25q29.91,33.12,60.05,66c4,4.4,8.09,8.73,12,12.88l3.78-3.11c-.4-.52-1-1.33-1.62-2.06-6.93-7.86-13.84-15.73-20.82-23.55q-16.08-18-32.23-36c-.22-.26-.43-.52-.66-.77q-22.45-25-44.93-50C53.51,33.67,50.12,33.29,45.55,34.42ZM143.9,161.85l.54-1.17c-.76-.93-1.47-1.92-2.3-2.78-5.88-6.05-11.85-12-17.68-18.13q-17.64-18.42-35.16-37C72,84.33,54.73,65.74,37.43,47.21c-.94-1-2-1.9-3.14-3-2,2.94-1.2,5,.75,7,5.3,5.36,10.5,10.83,15.87,16.11,1.53,1.5,3.55,2.49,5.3,3.77a5,5,0,0,1,1.24,1.43c1,1.57,1.65,3.42,2.89,4.73C70.12,87.7,80,98,89.87,108.39q23.05,24.23,46.13,48.44a34.53,34.53,0,0,0,4.82,4.22C141.63,161.62,142.86,161.6,143.9,161.85ZM48.19,26.18c-2.56-2.77-5.15-3.82-8.45-3-2.81.68-5.64,1.24-8.46,1.86l-.36-1.24a60.12,60.12,0,0,1,6-2.31,67.48,67.48,0,0,1,6.86-1.14c-7.43-5.06-15.29-1.55-20.91,3.86-2.58,2.5-5.65,5.67-4.29,10.52l3.28-1.85,1.81.31a16,16,0,0,0-1.25,2.69c-.8,3.16.79,5.4,4.08,5.75a7.72,7.72,0,0,0,2.26-.51c.21,2.09.34,3.36.56,5.44,4.59-10,11-16.29,22.22-15.52-1.73-3.07-4.42-2.55-6.79-2.45a74.81,74.81,0,0,0-7.68,1.14C40.34,25.62,44.31,27.1,48.19,26.18ZM173.06,174.43c-4-6.56-8.08-13.39-12.39-20.07-.56-.87-2.34-1.17-3.59-1.26-.32,0-1.05,1.74-1.11,2.71-.17,2.43-1.15,3.26-3.5,2.39a13.48,13.48,0,0,0-2.94-.74c-2.21-.28-3.19.7-2,2.71,1.42,2.36,1.18,3.93-1.9,4.76a12.54,12.54,0,0,0,1.88,2.33q8.39,6,16.87,11.82a2.35,2.35,0,0,0,2.1,0C168.64,177.69,170.67,176.14,173.06,174.43ZM38,15.18c-4.34-4.88-7.87-10.4-15.23-8.67-5.45,1.27-10.43,3.74-11.86,9.77-1.15,4.84,1,8.88,4.66,12.76C20.38,20,27.45,15.21,38,15.18ZM171.48,180l-.6.72,6.74,6.14.1-.14Z"/><path class="cls-1" d="M150.82,154.4l-.87.4c-5.49,2.31-8.58-.82-12.09-4.56-24.24-25.76-48.71-51.3-73-77C63.67,72,63.37,70,62.5,68.41a5.51,5.51,0,0,0-1.9-1.91c-1.16-.7-2.78-.85-3.66-1.76C50.55,58.09,44.39,51.21,38,44.6c-2.39-2.45-1.51-3.91.58-5.76,3.83-3.38,4.51-3.63,6.93-1,22.75,24.56,45.58,49.05,68.18,73.75,11.1,12.13,21.78,24.65,32.62,37C147.82,150.36,149.18,152.3,150.82,154.4Z"/><path class="cls-1" d="M45.55,34.42c4.57-1.13,8-.75,10.68,2.28q22.49,25,44.93,50c.23.25.44.51.66.77q16.13,18,32.23,36c7,7.82,13.89,15.69,20.82,23.55.65.73,1.22,1.54,1.62,2.06l-3.78,3.11c-3.86-4.15-7.94-8.48-12-12.88q-30.06-33-60-66c-2.81-3.12-4.78-7-7.46-10.25-1.28-1.56-3.51-2.31-4.92-3.8-6.76-7.1-13.38-14.33-20-21.53C47.48,36.85,46.76,35.88,45.55,34.42Z"/><path class="cls-1" d="M143.9,161.85c-1-.25-2.27-.23-3.08-.8a34.53,34.53,0,0,1-4.82-4.22q-23.1-24.18-46.13-48.44C80,98,70.12,87.7,60.34,77.27c-1.24-1.31-1.91-3.16-2.89-4.73a5,5,0,0,0-1.24-1.43c-1.75-1.28-3.77-2.27-5.3-3.77C45.54,62.06,40.34,56.59,35,51.23c-1.95-2-2.78-4-.75-7,1.12,1.05,2.2,1.94,3.14,3C54.73,65.74,72,84.33,89.3,102.81q17.46,18.6,35.16,37c5.83,6.1,11.8,12.08,17.68,18.13.83.86,1.54,1.85,2.3,2.78Z"/><path class="cls-1" d="M48.19,26.18c-3.88.92-7.85-.56-11.07,3.53a74.81,74.81,0,0,1,7.68-1.14c2.37-.1,5.06-.62,6.79,2.45C40.33,30.25,34,36.56,29.37,46.54c-.22-2.08-.35-3.35-.56-5.44a7.72,7.72,0,0,1-2.26.51c-3.29-.35-4.88-2.59-4.08-5.75a16,16,0,0,1,1.25-2.69l-1.81-.31-3.28,1.85c-1.36-4.85,1.71-8,4.29-10.52,5.62-5.41,13.48-8.92,20.91-3.86A67.48,67.48,0,0,0,37,21.47a60.12,60.12,0,0,0-6,2.31L31.28,25c2.82-.62,5.65-1.18,8.46-1.86C43,22.36,45.63,23.41,48.19,26.18Z"/><path class="cls-1" d="M173.06,174.43c-2.39,1.71-4.42,3.26-6.56,4.62a2.35,2.35,0,0,1-2.1,0q-8.49-5.82-16.87-11.82a12.54,12.54,0,0,1-1.88-2.33c3.08-.83,3.32-2.4,1.9-4.76-1.21-2-.23-3,2-2.71a13.48,13.48,0,0,1,2.94.74c2.35.87,3.33,0,3.5-2.39.06-1,.79-2.73,1.11-2.71,1.25.09,3,.39,3.59,1.26C165,161,169.05,167.87,173.06,174.43Z"/><path class="cls-1" d="M38,15.18C27.45,15.21,20.38,20,15.57,29c-3.67-3.88-5.81-7.92-4.66-12.76,1.43-6,6.41-8.5,11.86-9.77C30.13,4.78,33.66,10.3,38,15.18Z"/><path class="cls-1" d="M171.48,180l6.24,6.72-.1.14-6.74-6.14Z"/></svg>
