<?xml version="1.0" encoding="utf-8"?>
<!-- Generator: Adobe Illustrator 23.0.0, SVG Export Plug-In . SVG Version: 6.00 Build 0)  -->
<svg version="1.1" id="Layer_1" xmlns="http://www.w3.org/2000/svg" xmlns:xlink="http://www.w3.org/1999/xlink" x="0px" y="0px"
	 viewBox="0 0 100 100" style="enable-background:new 0 0 100 100;" xml:space="preserve">
<style type="text/css">
	.st0{fill:#FEFEFE;}
	.st1{fill:#5073EC;}
	.st2{fill:none;stroke:#5073EC;stroke-width:15;stroke-miterlimit:10;}
	.st3{fill:none;stroke:#000000;stroke-width:4;stroke-miterlimit:10;}
</style>
<title>pause</title>
<path d="M-36.9-207.8c0,26.6-21.3,47.9-47.9,47.9c-26.6,0-47.9-21.3-47.9-47.9c0-26.6,21.3-47.9,47.9-47.9
	C-58.2-255.7-36.9-234.4-36.9-207.8z M-76.9-213.6c0.2-0.1,0.4-0.2,0.6-0.3c-0.7,0-1.4,0-2.1,0c-10.6,0-21.2-0.1-31.8,0.1
	c-1.5,0-3.6,0.7-4.4,1.8c-1.8,2.4-1.5,5.4-0.5,8c0.9,2.3,3.2,2.5,5.4,2.5c10.5,0,20.9,0,31.4,0c0.7,0,1.4,0,2.5,0
	c-0.6,0.6-0.8,0.9-1,1.1c-4.3,4.1-8.6,8.3-12.9,12.4c-2.6,2.4-2.7,4.9-0.3,7.5c0.6,0.6,1.2,1.3,1.9,1.8c2.1,1.7,4.7,1.7,6.6-0.2
	c8.4-8.4,16.8-16.7,25.2-25.1c2.3-2.3,2.3-4.9,0.1-7.2c-8.4-8.4-16.8-16.8-25.2-25.1c-2.3-2.3-4.6-2.2-7,0c-0.6,0.5-1.2,1.1-1.7,1.7
	c-2.1,2.2-2.1,4.6,0,6.8c1.6,1.7,3.5,3.2,5.1,4.9C-82.4-219.9-79.7-216.7-76.9-213.6z"/>
<path d="M81.1-205.2c-9.4,0.6-18.5,0.5-26.9,4.9c-5.5,2.9-8.3,7.6-8.6,13.8c-0.3,4.8,0.5,9.5,1.9,14.1c0.2,0.7,0.7,1.4,0.5,2
	c-0.3,1.2-0.5,2.9-1.4,3.4c-1,0.6-3,0.6-3.8-0.1c-11.2-9.1-17.2-20.4-15-35.3c2.1-14.2,11.5-21.3,24.3-25c8-2.3,16.2-3,24.5-3.2
	c1.4,0,2.8,0,4.5,0c0-3.3,0-6.4,0-9.4c0-1.8,0-3.6,0-5.3c0-2,0.8-3.5,2.6-4.3c1.9-0.9,3.6-0.6,5.1,0.8c7.8,6.7,15.5,13.4,23.3,20.1
	c2.9,2.5,5.8,5,8.7,7.5c2.9,2.6,2.9,5.4,0,7.9c-10.5,9-20.9,18.1-31.4,27.1c-1.4,1.2-2.8,2.2-4.8,1.7c-2.3-0.6-3.5-2.3-3.5-5
	C81.1-194.5,81.1-199.7,81.1-205.2z"/>
<g>
	<path d="M247.1-184.2c6.4,0,12.4,0.1,18.4,0c4.6-0.1,7.3-4.8,5.1-8.9c-1.5-2.7-3.2-5.3-4.9-8c-1.3-2.1-1.1-3.1,0.9-4.4
		c1.8-1.2,3.7-2.3,5.5-3.5c1.4-0.9,2.6-0.6,3.4,0.7c2.3,3.7,5,7.2,6.6,11.2c4.9,11.7-3.6,24.6-16.4,25c-5.4,0.2-10.7,0-16.1,0
		c-0.8,0-1.6,0-2.7,0c0,2.8-0.1,5.6,0,8.3c0,1.6-0.4,2.9-1.9,3.6c-1.6,0.7-2.8,0-3.9-1.1c-4.7-4.7-9.4-9.4-14.1-14.1
		c-2-2-2-3.5,0.1-5.6c4.6-4.7,9.3-9.3,14-14c1.1-1.1,2.3-1.9,3.9-1.2c1.7,0.7,2,2.1,2,3.7C247-189.8,247.1-187.1,247.1-184.2z"/>
	<path d="M209-209c-3.4,5.6-6.9,10.8-10,16.3c-2.1,3.8,0.9,8.3,5.3,8.5c3,0.1,6.1,0,9.1,0c2.4,0,3.1,0.7,3.1,3.1c0,2.1,0,4.2,0,6.3
		c0,1.6-0.7,2.7-2.4,2.7c-4.3,0-8.7,0.2-13-0.4c-12.2-1.7-19-16.1-12.7-26.7c3.2-5.4,6.6-10.7,10.1-16.2c-2.3-1.5-4.6-2.9-6.9-4.3
		c-1.3-0.8-2.5-1.8-2.2-3.6c0.3-1.9,1.6-2.4,3.2-2.7c6.4-1.5,12.8-3,19.2-4.5c2.6-0.6,4,0.2,4.6,2.9c1.5,6.5,3,13.1,4.6,19.6
		c0.3,1.5,0.3,2.7-1,3.7c-1.3,0.9-2.5,0.7-3.8-0.1C214-206,211.6-207.4,209-209z"/>
	<path d="M248-229.7c-2.9-4.5-5.5-9.1-8.6-13.3c-2.2-3-6.7-2.8-9,0.1c-1.3,1.7-2.4,3.6-3.6,5.4c-1,1.7-2.3,2.1-4,1
		c-1.9-1.2-3.8-2.4-5.7-3.6c-1.2-0.8-1.8-1.9-1.1-3.1c2.4-3.7,4.2-7.8,7.9-10.5c8.5-6.3,20.3-4.4,26.1,4.5c2.8,4.2,5.4,8.5,8.3,13
		c2.3-1.5,4.5-2.8,6.7-4.2c1.4-0.9,2.9-1.5,4.4-0.4c1.5,1.1,1.3,2.6,0.9,4.1c-1.5,6.4-3,12.8-4.5,19.2c-0.6,2.5-1.9,3.4-4.4,2.8
		c-6.6-1.5-13.1-3-19.7-4.5c-1.4-0.3-2.6-0.9-2.9-2.5c-0.3-1.7,0.6-2.7,1.9-3.6C243.1-226.7,245.4-228.1,248-229.7z"/>
</g>
<g>
	<path d="M388-177.3c2.2,2.1,4.1,3.8,5.9,5.6c2.9,2.8,2.9,5.1,0.1,7.9c-0.4,0.4-0.8,0.9-1.2,1.3c-1.9,1.9-4.6,2.1-6.5,0.2
		c-6.1-6-12.2-12.1-18.2-18.2c-1.6-1.6-1.6-4.4,0-6c6-6.1,12.1-12.2,18.2-18.2c0.4-0.4,0.9-0.7,1.5-0.9c2.4-1,5.1,0.4,7.4,3.8
		c1.4,2,1.2,4.1-0.6,6c-2,2-4.1,3.9-6.5,6.2c1,0,1.5,0,2,0c10.9,0,21.9,0.1,32.8,0c13.3-0.1,22-12.7,17.4-25.2
		c-1.3-3.7,0.9-8.3,4.7-9.5c2.3-0.8,4.6,0.3,5.8,2.7c7,14.5,1.6,32.1-12.4,40.1c-4.8,2.7-10,4.2-15.5,4.2c-10.7,0-21.4,0-32.2,0
		C390-177.3,389.3-177.3,388-177.3z"/>
	<path d="M421.1-239c-2.2-2.1-4-3.8-5.8-5.5c-3-2.8-3-5.3-0.1-8.3c3.1-3.2,5.6-3.4,8.5-0.5c5.6,5.6,11.1,11.1,16.7,16.7
		c2.6,2.6,2.6,5-0.1,7.6c-5.6,5.6-11.2,11.2-16.8,16.8c-2.7,2.7-5.2,2.4-8.3-0.8c-2.8-2.9-2.8-5.4-0.1-8c1.9-1.8,3.7-3.5,5.9-5.5
		c-0.9-0.1-1.4-0.2-1.9-0.2c-10.9,0-21.7,0-32.6,0c-13.5,0.1-22.2,12.6-17.6,25.2c1.3,3.7-1,8.3-4.8,9.4c-2.4,0.7-4.6-0.3-5.8-2.8
		c-7-14.5-1.7-31.9,12.2-40c4.9-2.8,10.1-4.3,15.7-4.3C397.6-239,409-239,421.1-239z"/>
</g>
<g>
	<path d="M575.9-225.4c-1.8-0.8-2.7,0.1-3.7,1.2c-14.2,15.5-28.5,30.9-42.8,46.3c-0.9,0.9-2.4,1.6-3.6,1.7
		c-6.2,0.2-12.4,0.1-18.7,0.1c-2.6,0-3.2-0.7-3.3-3.3c0-1.3,0-2.6,0-3.9c0-2.6,0.7-3.3,3.3-3.4c4.3-0.1,8.6-0.2,12.9,0
		c2.4,0.1,4.1-0.7,5.7-2.5c13.5-14.7,27.1-29.3,40.5-44.1c2.1-2.3,4.2-3.5,7.2-3c0.7,0.1,1.4,0,2.5,0c0-2.3,0.1-4.4,0-6.6
		c-0.1-2.2,0.7-4,2.7-4.9c2.1-1,3.9-0.2,5.5,1.2c4.7,4.2,9.4,8.4,14,12.6c2.5,2.3,2.5,4.9,0,7.2c-4.7,4.4-9.5,8.7-14.2,13.1
		c-1.5,1.4-3.3,2-5.3,1.1c-1.9-0.9-2.8-2.6-2.7-4.7C575.9-220.1,575.9-222.8,575.9-225.4z"/>
	<path d="M575.9-176.1c-0.4-0.1-0.5-0.1-0.6-0.1c-5,1-8.2-1.7-11.2-5.3c-3.9-4.7-8.2-9.1-12.6-13.8c2.4-2.6,4.7-5.1,7.1-7.7
		c2.5,2.7,4.9,5.2,7.2,7.7c2.2,2.4,4.4,4.9,6.7,7.2c0.7,0.7,1.8,1,3.2,1.8c0-3.4,0-6,0-8.6c-0.1-2.3,0.6-4.1,2.8-5.1
		c2.1-0.9,3.9-0.2,5.5,1.3c4.6,4.1,9.2,8.2,13.7,12.3c2.8,2.5,2.8,5.2,0,7.7c-4.5,4.2-9,8.3-13.6,12.5c-1.6,1.5-3.4,2.5-5.6,1.5
		c-2.3-1-3-2.9-2.9-5.2C575.9-171.9,575.9-174,575.9-176.1z"/>
	<path d="M545.2-217.2c-2.3,2.5-4.6,5-7,7.6c-3.4-3.7-7.1-7.1-10-11c-3.1-4.1-6.7-5.9-11.8-5.2c-3,0.4-6.1,0.1-9.2,0.1
		c-2.7,0-3.4-0.8-3.4-3.5c-0.1-8-0.4-7.1,7-7.1c5,0,10-0.1,15,0c1,0,2.4,0.4,3.1,1.1c5.2,5.5,10.3,11.1,15.5,16.7
		C544.6-218.2,544.9-217.7,545.2-217.2z"/>
</g>
<g>
	<path d="M575.9-103.1c0-3,0-5.7,0-8.4c0-2.1,0.7-3.8,2.7-4.6c1.9-0.7,3.8-0.3,5.3,1.2c4.8,4.8,9.6,9.5,14.3,14.3
		c2.2,2.2,2.2,4.7,0,7c-4.7,4.8-9.5,9.6-14.3,14.3c-1.5,1.5-3.4,1.9-5.3,1.1c-1.9-0.8-2.7-2.4-2.7-4.5c0-2.8,0-5.5,0-8.5
		c-1,0-1.8,0-2.6,0c-21,0-42,0-63.1,0c-2.2,0-4.3-0.1-5.3-2.3c-1.1-2.5-1.2-5.1,0.1-7.6c0.9-1.7,2.7-2.1,4.6-2.1
		c10.3,0,20.6,0,30.9,0c10.9,0,21.9,0,32.8,0C574.1-103.1,574.9-103.1,575.9-103.1z"/>
	<path d="M528.1-67.2c1.2,0,2,0,2.9,0c21,0,41.9,0,62.9,0c2.3,0,4.5,0.3,5.3,2.6c0.9,2.4,1.1,5-0.3,7.4c-1,1.7-2.8,2-4.7,2
		c-19,0-38,0-56.9,0c-3,0-6,0-9.2,0c0,2.7-0.1,5.3,0,7.9c0.1,2.3-0.6,4.2-2.7,5.1c-2.2,0.9-4.1,0.1-5.7-1.6
		c-4.4-4.5-8.9-9-13.4-13.4c-2.7-2.8-2.7-5.1,0.1-7.9c4.5-4.5,9-8.9,13.4-13.4c1.7-1.7,3.6-2.4,5.8-1.5c2.2,0.9,2.7,2.9,2.7,5.1
		C528.1-72.6,528.1-70,528.1-67.2z"/>
</g>
<path d="M426.8-53.9c3.3-3.6,6.7-7.1,10-10.7c2.5-2.7,5.1-2.8,7.7-0.3c1.3,1.2,2.6,2.5,3.8,3.8c1.9,2.1,2,4.4,0.2,6.6
	c-0.6,0.7-1.2,1.3-1.8,2c-7.8,7.9-15.6,15.7-23.4,23.6c-3.5,3.6-5.7,3.6-9.2,0.1c-7.9-7.9-15.7-15.8-23.6-23.7
	c-0.7-0.7-1.5-1.3-1.9-2.2c-0.5-0.9-1.1-2-1.1-3.1c-0.1-2.8,6-8.9,8.8-8.7c1.3,0.1,2.9,0.8,3.8,1.8c3.4,3.4,6.7,7,10,10.5
	c0.1,0.1,0.3,0.1,0.6,0.3c0-18.9,0-37.7,0-56.7c-5,0-9.9-0.1-14.8,0c-1.8,0-3.1-0.6-4.3-1.8c-3-3.2-6.2-6.2-9.2-9.4
	c-0.6-0.7-1.2-2.2-0.9-2.8c0.4-0.8,1.8-1.6,2.8-1.6c12.3-0.1,24.7-0.1,37-0.1c3.6,0,5.1,1.8,5.1,5.8c0,21.3,0,42.5,0,63.8
	c0,0.9,0,1.7,0,2.6C426.4-54,426.6-54,426.8-53.9z"/>
<g>
	<path class="st0" d="M-315.4,40.9c-0.2,0.2-0.3,0.3-0.5,0.5C-315.7,41.2-315.6,41.1-315.4,40.9z"/>
	<path class="st0" d="M-187.9,21.5c-0.2-0.2-0.3-0.3-0.5-0.5C-188.2,21.2-188.1,21.3-187.9,21.5z"/>
</g>
<path class="st1" d="M-397-57.8c-6-2.7-9.5-7-10.8-13.2c-1.4-6.8,1.9-14.2,8-18c6-3.7,14-3.4,19.5,0.9c10.8,8.4,9.1,24.1-3.3,29.9
	c-1.4,0.6-1.8,1.4-1.8,2.8c0.1,13.2,0.1,26.3,0,39.5c0,1.6,0.6,2.3,2,2.9c7.5,3.6,11.3,10.9,9.9,18.8c-1.4,7.9-7.5,13.5-15.7,14.4
	c-7.7,0.8-15.6-4.4-18-11.9c-2.7-8.5,0.7-17,8.5-21c2.1-1.1,2.8-2.2,2.7-4.5c-0.1-8.4-0.1-16.8-0.1-25.2c0-0.9,0-1.8,0-3
	c-9.3,3.9-19,3.1-28.2,5.1c-5.8,1.2-10,4.9-10,18.5c0,9.7-0.2,39.8-0.3,40.2c-0.3,1.6-0.2,2.6,1.7,3.4c6.8,2.9,10.4,8.3,10.6,15.6
	c0.2,7.5-3.4,13.2-10.3,16.3c-6.6,2.9-12.9,1.9-18.5-2.7c-9.5-7.9-7.6-23.1,3.5-28.7c1.7-0.8,2.4-1.7,2.5-3.7c0-0.5,0.1-22,0.1-40.4
	s8.1-26.9,19.2-28.9c6.4-1.1,12.9-1.6,19.3-2.5C-402.9-53.6-399.5-54.5-397-57.8z M-390.6-5.8c-4.9,0-8.7,3.7-8.7,8.6
	c0,4.9,3.7,8.7,8.6,8.8c4.9,0,8.7-3.8,8.7-8.6C-381.9-2-385.7-5.8-390.6-5.8z M-448.3,37.8c-0.1,4.9,3.7,8.7,8.6,8.8
	c4.9,0.1,8.8-3.7,8.8-8.6c0.1-4.9-3.7-8.7-8.6-8.8C-444.5,29.1-448.3,32.8-448.3,37.8z M-391.1-65.5c4.8,0.3,8.9-3.4,9.2-8.2
	c0.2-4.8-3.4-8.9-8.2-9.2c-4.9-0.3-8.9,3.4-9.2,8.2C-399.6-69.8-396-65.7-391.1-65.5z"/>
<circle class="st2" cx="-221.5" cy="-74.2" r="13.1"/>
<circle class="st2" cx="-221.5" cy="2" r="13.1"/>
<circle class="st2" cx="-270.5" cy="51" r="13.1"/>
<line class="st2" x1="-221.5" y1="-11.1" x2="-221.5" y2="-61.1"/>
<path class="st2" d="M-270.5,37.9c0,0,0-16.9,0-32.9c0-44.2,49-28.6,49-62.3"/>
<path class="st1" d="M-85.3-74.2c0-11.3-9.2-20.6-20.6-20.6s-20.6,9.2-20.6,20.6c0,8.7,5.4,16.1,13,19.1c-0.8,8.7-6.5,11.8-17.6,17
	c-13.2,6.2-31.3,14.7-31.3,43v26.8c-7.6,3-13.1,10.4-13.1,19.1c0,11.3,9.2,20.6,20.6,20.6s20.6-9.2,20.6-20.6
	c0-8.7-5.4-16.1-13.1-19.1V5c0-18.8,10-23.5,22.7-29.5c3.7-1.7,7.6-3.6,11.3-5.9v13.3c-7.6,3-13.1,10.4-13.1,19.1
	c0,11.3,9.2,20.6,20.6,20.6S-85.3,13.3-85.3,2c0-8.7-5.4-16.1-13.1-19.1V-55C-90.7-58-85.3-65.5-85.3-74.2z M-154.8,56.5
	c-3.1,0-5.6-2.5-5.6-5.6s2.5-5.6,5.6-5.6s5.6,2.5,5.6,5.6S-151.7,56.5-154.8,56.5z M-105.8-79.7c3.1,0,5.6,2.5,5.6,5.6
	s-2.5,5.6-5.6,5.6s-5.6-2.5-5.6-5.6S-108.9-79.7-105.8-79.7z M-105.8,7.6c-3.1,0-5.6-2.5-5.6-5.6s2.5-5.6,5.6-5.6s5.6,2.5,5.6,5.6
	S-102.8,7.6-105.8,7.6z"/>
<path d="M76.1,13.8c0-6.6-5.3-11.9-11.9-11.9S52.3,7.2,52.3,13.8c0,5,3.1,9.3,7.5,11.1c-0.5,5.1-3.8,6.9-10.2,9.9
	c-7.6,3.6-18.1,8.5-18.1,24.9v15.5c-4.4,1.7-7.6,6-7.6,11.1c0,6.6,5.3,11.9,11.9,11.9s11.9-5.3,11.9-11.9c0-5-3.1-9.3-7.6-11.1V59.6
	c0-10.9,5.8-13.6,13.1-17.1c2.1-1,4.4-2.1,6.6-3.4v7.7c-4.4,1.7-7.6,6-7.6,11.1c0,6.6,5.3,11.9,11.9,11.9s11.9-5.3,11.9-11.9
	c0-5-3.1-9.3-7.6-11.1V24.9C72.9,23.1,76.1,18.8,76.1,13.8z M35.8,89.4c-1.8,0-3.2-1.4-3.2-3.2S34,83,35.8,83s3.2,1.4,3.2,3.2
	S37.6,89.4,35.8,89.4z M64.2,10.6c1.8,0,3.2,1.4,3.2,3.2S66,17,64.2,17S61,15.6,61,13.8S62.4,10.6,64.2,10.6z M64.2,61.1
	c-1.8,0-3.2-1.4-3.2-3.2s1.4-3.2,3.2-3.2s3.2,1.4,3.2,3.2S66,61.1,64.2,61.1z"/>
<path d="M303.5-104.4c4.3-1.4,7.4-5.5,7.4-10.2c0-5.9-4.8-10.8-10.8-10.8s-10.8,4.8-10.8,10.8c0,4.8,3.1,8.8,7.4,10.2v0.1
	c0,4.5-2.9,6.1-10.1,8.9c-8.4,3.2-19.9,7.7-19.9,25.2v22.1c-4.3,1.4-7.4,5.5-7.4,10.2c0,5.9,4.8,10.8,10.8,10.8S280.9-32,280.9-38
	c0-4.8-3.1-8.8-7.4-10.2v-22.1c0-12.9,7.6-15.8,15.6-18.9c2.6-1,5.3-2,7.7-3.5v14.5c-4.3,1.4-7.4,5.5-7.4,10.2
	c0,5.9,4.8,10.8,10.8,10.8S310.9-62,310.9-68c0-4.8-3.1-8.8-7.4-10.2V-104.4z M275.4-38c0,2.9-2.4,5.2-5.2,5.2s-5.2-2.4-5.2-5.2
	c0-2.9,2.4-5.2,5.2-5.2S275.4-40.9,275.4-38z M294.9-114.6c0-2.9,2.4-5.2,5.2-5.2s5.2,2.4,5.2,5.2s-2.4,5.2-5.2,5.2
	S294.9-111.7,294.9-114.6z M305.4-68c0,2.9-2.4,5.2-5.2,5.2s-5.2-2.4-5.2-5.2s2.4-5.2,5.2-5.2S305.4-70.9,305.4-68z"/>
<g>
	<path d="M142-48c0,2.1,1.7,3.9,3.9,3.9s3.9-1.7,3.9-3.9c0-2.1-1.7-3.9-3.9-3.9S142-50.2,142-48z"/>
	<path d="M171.9-104.5c0-2.1-1.7-3.9-3.9-3.9s-3.9,1.7-3.9,3.9s1.7,3.9,3.9,3.9S171.9-102.4,171.9-104.5z"/>
	<path d="M164.2-70.1c0,2.1,1.7,3.9,3.9,3.9s3.9-1.7,3.9-3.9S170.2-74,168-74S164.2-72.3,164.2-70.1z"/>
	<path d="M157-125.3c-27.1,0-49.1,22-49.1,49.1c0,27.1,22,49.1,49.1,49.1c27.1,0,49.1-22,49.1-49.1C206-103.4,184.1-125.3,157-125.3
		z M176-70.1c0,4.4-3.6,7.9-7.9,7.9c-4.4,0-7.9-3.6-7.9-7.9c0-3.5,2.3-6.5,5.5-7.5v-10.7c-1.8,1.1-3.8,1.8-5.7,2.6
		c-5.9,2.3-11.5,4.4-11.5,13.9v16.3c3.2,1,5.5,4,5.5,7.5c0,4.4-3.6,7.9-7.9,7.9S138-43.6,138-48c0-3.5,2.3-6.5,5.5-7.5v-16.3
		c0-12.9,8.5-16.2,14.7-18.6c5.3-2,7.5-3.2,7.5-6.5V-97c-3.2-1-5.5-4-5.5-7.5c0-4.4,3.6-7.9,7.9-7.9c4.4,0,7.9,3.6,7.9,7.9
		c0,3.5-2.3,6.5-5.5,7.5v19.3C173.7-76.6,176-73.7,176-70.1z"/>
</g>
<path d="M67.4-100.5c0-4.4-3.6-8-8-8s-8,3.6-8,8c0,3.3,2.1,6.2,5,7.4c-0.3,3.4-2.5,4.6-6.8,6.6c-5.1,2.4-12.1,5.7-12.1,16.6v10.4
	c-3,1.2-5.1,4-5.1,7.4c0,4.4,3.6,8,8,8s8-3.6,8-8c0-3.4-2.1-6.2-5.1-7.4v-10.4c0-7.3,3.9-9.1,8.8-11.4c1.4-0.7,2.9-1.4,4.4-2.3v5.1
	c-3,1.2-5.1,4-5.1,7.4c0,4.4,3.6,8,8,8s8-3.6,8-8c0-3.4-2.1-6.2-5.1-7.4v-14.6C65.3-94.2,67.4-97.1,67.4-100.5z M40.5-49.9
	c-1.2,0-2.2-1-2.2-2.2s1-2.2,2.2-2.2c1.2,0,2.2,1,2.2,2.2S41.7-49.9,40.5-49.9z M59.5-102.6c1.2,0,2.2,1,2.2,2.2s-1,2.2-2.2,2.2
	c-1.2,0-2.2-1-2.2-2.2S58.3-102.6,59.5-102.6z M59.5-68.9c-1.2,0-2.2-1-2.2-2.2c0-1.2,1-2.2,2.2-2.2c1.2,0,2.2,1,2.2,2.2
	C61.6-69.8,60.7-68.9,59.5-68.9z"/>
<circle class="st3" cx="50" cy="-76.3" r="43.6"/>
</svg>
