<?xml version="1.0" encoding="utf-8"?>
<!-- Generator: Adobe Illustrator 23.0.0, SVG Export Plug-In . SVG Version: 6.00 Build 0)  -->
<svg version="1.1" id="Layer_1" xmlns="http://www.w3.org/2000/svg" xmlns:xlink="http://www.w3.org/1999/xlink" x="0px" y="0px"
	 viewBox="0 0 100 100" style="enable-background:new 0 0 100 100;" xml:space="preserve">
<path d="M99.3,49.9c-0.1,27.5-22.2,49.6-49.6,49.4C22.1,99.2,0.1,77,0.3,49.7C0.6,22.1,22.4,0.3,49.8,0.3
	C77.3,0.3,99.4,22.5,99.3,49.9z M30.6,49.9c0,6.6,0,13.1,0,19.7c0,5,3.6,7.2,8,4.7C49.9,67.9,61.1,61.4,72.3,55
	c4-2.3,4.2-6.4,0.3-8.8c-11.4-7-22.9-14-34.4-21c-0.7-0.4-1.6-0.8-2.5-0.9c-2.9-0.2-5,2-5,5.2C30.6,36.3,30.6,43.1,30.6,49.9z"/>
</svg>
