<svg id="Layer_1" data-name="Layer 1" xmlns="http://www.w3.org/2000/svg" xmlns:xlink="http://www.w3.org/1999/xlink" viewBox="0 0 248.27 248.27"><defs><style>.cls-1,.cls-2{fill:none;}.cls-2{clip-rule:evenodd;}.cls-3{clip-path:url(#clip-path);}.cls-4{clip-path:url(#clip-path-2);}.cls-5{fill:#d8d8d8;}.cls-6{clip-path:url(#clip-path-3);}.cls-7{fill:#ee1c4f;}.cls-8{clip-path:url(#clip-path-5);}.cls-9{isolation:isolate;}.cls-10{clip-path:url(#clip-path-7);}.cls-11{clip-path:url(#clip-path-8);}.cls-12{clip-path:url(#clip-path-9);}</style><clipPath id="clip-path"><circle class="cls-1" cx="124.13" cy="124.13" r="124.13"/></clipPath><clipPath id="clip-path-2"><rect class="cls-1" width="248.27" height="248.27"/></clipPath><clipPath id="clip-path-3"><path class="cls-2" d="M105.58,195.06c-2.19,0-4.44-.27-5.16-2.88-.84-3.07-1.26-6.44,1-9,.78-.91,2.41-1.22,3.68-1.28,3.42-.17,6.85-.13,10.28,0,1.78.05,2.52-.59,2.56-2.66.11-6.56.14-6.46-5.55-8.21-11.65-3.59-20.22-11.54-26.25-22.91a56.83,56.83,0,0,1-6.32-26.52q0-4.55,0-9.09c.05-4.14,1.54-5.74,5.36-5.8H86.3c4.1,0,5.56,1.59,5.59,6,0,3.52,0,7,0,10.56,0,18.4,12.46,34.31,29,36.28,16.75,2,32.39-10.92,34.85-29.76.71-5.46.42-11.09.52-16.65,0-2.29.09-4.71,2.21-5.74a8,8,0,0,1,8,.21,4.88,4.88,0,0,1,1.79,3.45c.19,9.14.87,18.4-1.8,27.28-5.36,17.82-16.36,29.1-33.06,33.38-2.33.6-3.23,1.51-3.14,4.19.2,6.74-.6,5.86,5.39,5.92,2.61,0,5.22,0,7.83,0,3.13.1,4.62,1.76,4.77,5.18,0,.82,0,1.64,0,2.46-.09,3.86-1.58,5.55-5.1,5.58-6.33.05-12.67,0-19,0Z"/></clipPath><clipPath id="clip-path-5"><rect class="cls-1" x="98.02" y="54.13" width="52.26" height="96.59"/></clipPath><clipPath id="clip-path-7"><rect class="cls-1" x="97.53" y="44.33" width="53.2" height="115.27"/></clipPath><clipPath id="clip-path-8"><path class="cls-2" d="M98,80.14a26.06,26.06,0,0,1,51.8-4,29.44,29.44,0,0,1,.41,4.59q0,21.71,0,43.4a26.17,26.17,0,0,1-26.65,26.58c-13.75-.11-25.44-11.84-25.56-25.72-.06-7.55,0-15.11,0-22.67C98,94.93,98,87.54,98,80.14Z"/></clipPath><clipPath id="clip-path-9"><rect class="cls-1" x="97.53" y="53.2" width="53.2" height="97.53"/></clipPath></defs><title>recording</title><g class="cls-3"><g class="cls-4"><rect class="cls-5" x="-44.33" y="-44.33" width="336.93" height="336.93"/></g></g><g class="cls-6"><g class="cls-4"><rect class="cls-7" x="35.47" y="62.07" width="177.33" height="177.33"/></g></g><g class="cls-8"><g class="cls-4"><g class="cls-9"><g class="cls-10"><g class="cls-11"><g class="cls-12"><rect class="cls-7" x="53.68" y="9.8" width="140.92" height="185.26"/></g></g></g></g></g></g></svg>