<svg id="Layer_1" data-name="Layer 1" xmlns="http://www.w3.org/2000/svg" viewBox="0 0 248.27 248.27"><defs><style>.cls-1{fill:#d8d8d8;}.cls-2{fill:#4c4c4c;}</style></defs><title>voice-off</title><circle class="cls-1" cx="124.13" cy="124.13" r="124.13"/><path class="cls-2" d="M176.16,114.63a2.38,2.38,0,0,1-1.68-4.06L192.09,93a2.38,2.38,0,0,1,3.36,3.36l-17.61,17.6A2.34,2.34,0,0,1,176.16,114.63Z"/><path class="cls-2" d="M201.43,126.81H176.16a2.38,2.38,0,0,1,0-4.75h25.27a2.38,2.38,0,0,1,0,4.75Z"/><path class="cls-2" d="M194.41,159.64a2.37,2.37,0,0,1-1.68-.69L174.48,140.7a2.38,2.38,0,1,1,3.36-3.36l18.25,18.25a2.37,2.37,0,0,1-1.68,4Z"/><path class="cls-2" d="M160.56,132.32a62.67,62.67,0,0,0,0,7.06c1.05,8.15.56,9.65-7.28,11.13-11.94,2.25-17.9,9.39-18.95,21-.38,4.13-2.48,5.38-6.21,5.37-9.11,0-18.22.21-27.33.06-6.34-.1-7.25-1.58-5.47-7.6,4.44-15,2.35-21.17-10.21-30.72a138.36,138.36,0,0,1-11-9.06c-15.75-14.74-16.12-38.35.11-52.5C89.44,63.86,107.44,59.85,127,65.88c10.27,3.18,17.08,10.36,18.46,21.17,1.14,8.94,5.83,13.24,14.23,14.86,5.58,1.07,6.14,3,2.06,6.74-2.71,2.53-3.75,4.72-1.82,8.24.57,1-.24,3.3-1.1,4.52-1,1.4-2.93,2.08-4,3.42a22.06,22.06,0,0,0-2.3,4.55c1.49.71,2.94,1.52,4.48,2.11A25.1,25.1,0,0,0,160.56,132.32Z"/></svg>