<svg id="Layer_1" data-name="Layer 1" xmlns="http://www.w3.org/2000/svg" viewBox="0 0 100 100"><title>icons</title><path d="M34.75,78.26a3.88,3.88,0,1,0,3.87-3.87A3.87,3.87,0,0,0,34.75,78.26Z"/><path d="M64.62,21.74a3.87,3.87,0,1,0-3.87,3.87A3.87,3.87,0,0,0,64.62,21.74Z"/><path d="M56.88,56.13a3.87,3.87,0,1,0,3.87-3.87A3.87,3.87,0,0,0,56.88,56.13Z"/><path d="M49.69.93A49.07,49.07,0,1,0,98.76,50,49.07,49.07,0,0,0,49.69.93Zm19,55.2A7.94,7.94,0,1,1,58.27,48.6V37.94a35.35,35.35,0,0,1-5.67,2.58C46.69,42.8,41.11,45,41.11,54.45V70.73a7.94,7.94,0,1,1-5,0V54.45c0-12.91,8.48-16.18,14.67-18.57,5.3-2,7.46-3.2,7.46-6.53v-.08a7.94,7.94,0,1,1,5,0V48.6A8,8,0,0,1,68.69,56.13Z"/></svg>