<svg id="Layer_1" data-name="Layer 1" xmlns="http://www.w3.org/2000/svg" viewBox="0 0 100 100"><title>icons</title><path d="M55.94,53c-9.36.6-18.53.5-26.89,4.91-5.53,2.92-8.26,7.6-8.61,13.78a40.35,40.35,0,0,0,1.87,14.1c.21.68.68,1.42.55,2-.25,1.24-.52,2.94-1.38,3.45a4.21,4.21,0,0,1-3.85-.11c-11.24-9-17.22-20.44-15-35.26C4.68,41.76,14.06,34.61,26.9,31a99.06,99.06,0,0,1,24.49-3.19c1.41,0,2.83,0,4.55,0v-9.4c0-1.78,0-3.56,0-5.34a4.55,4.55,0,0,1,7.69-3.53q11.62,10.08,23.3,20.1l8.73,7.55c2.94,2.56,2.93,5.37,0,7.94Q79.92,58.66,64.24,72.2c-1.39,1.21-2.82,2.23-4.79,1.75-2.26-.56-3.49-2.28-3.5-5C55.92,63.78,55.94,58.58,55.94,53Z"/></svg>