<svg id="Layer_1" data-name="Layer 1" xmlns="http://www.w3.org/2000/svg" viewBox="0 0 100 100"><title>icons</title><path d="M73.7,32.84C71.93,32.08,71,32.92,70,34Q48.63,57.2,27.18,80.31A5.71,5.71,0,0,1,23.53,82c-6.22.17-12.44.09-18.67.07-2.62,0-3.24-.66-3.27-3.33,0-1.28,0-2.57,0-3.86,0-2.61.7-3.35,3.31-3.38,4.29,0,8.59-.16,12.87,0A6.61,6.61,0,0,0,23.48,69C36.94,54.31,50.56,39.73,64,25c2.09-2.3,4.2-3.46,7.22-3a22.33,22.33,0,0,0,2.49,0c0-2.26,0-4.45,0-6.63s.66-4,2.7-4.94,3.92-.24,5.5,1.17c4.7,4.18,9.4,8.38,14,12.64,2.51,2.31,2.51,4.9,0,7.23-4.7,4.4-9.46,8.73-14.2,13.09-1.55,1.42-3.31,2-5.31,1.06a4.67,4.67,0,0,1-2.74-4.7C73.73,38.15,73.7,35.45,73.7,32.84Z"/><path d="M73.7,82.2a2.89,2.89,0,0,0-.57-.11c-5,1-8.19-1.65-11.2-5.26C58,72.12,53.68,67.75,49.36,63.05l7.15-7.74c2.48,2.66,4.86,5.2,7.22,7.75s4.41,4.88,6.73,7.21c.69.7,1.79,1,3.24,1.76,0-3.36,0-6,0-8.6-.05-2.28.63-4.08,2.83-5s3.86-.15,5.46,1.29c4.57,4.1,9.18,8.17,13.74,12.29,2.77,2.5,2.78,5.15,0,7.71-4.5,4.19-9,8.34-13.56,12.5-1.6,1.48-3.39,2.47-5.62,1.51s-3-2.88-2.88-5.24C73.76,86.39,73.7,84.33,73.7,82.2Z"/><path d="M43.07,41.07l-7,7.58C32.63,45,29,41.58,26,37.68c-3.11-4.08-6.67-5.92-11.82-5.22A61.65,61.65,0,0,1,5,32.52c-2.71,0-3.38-.77-3.4-3.51-.06-8-.36-7,7-7.07,5,0,10-.06,15,0a4.69,4.69,0,0,1,3.05,1.1C31.91,28.58,37,34.18,42.15,39.76A12.19,12.19,0,0,1,43.07,41.07Z"/></svg>