<svg id="Layer_1" data-name="Layer 1" xmlns="http://www.w3.org/2000/svg" viewBox="0 0 100 100"><title>icons</title><path d="M32.86,81c2.24,2.13,4.1,3.85,5.91,5.62,2.9,2.83,2.9,5.09.06,7.92-.41.42-.79.87-1.2,1.29a4.5,4.5,0,0,1-6.52.22q-9.19-9-18.25-18.21a4.42,4.42,0,0,1,0-6q9.06-9.16,18.24-18.22a4.45,4.45,0,0,1,1.47-.94c2.44-1,5.11.37,7.43,3.75a4.38,4.38,0,0,1-.61,6c-2,2-4.08,3.92-6.52,6.25h2c10.94,0,21.89,0,32.83,0C81,68.57,89.65,56,85.09,43.47A7.61,7.61,0,0,1,89.8,34a4.72,4.72,0,0,1,5.81,2.73A31,31,0,0,1,67.68,81Q51.6,81,35.51,81Z"/><path d="M65.9,19.29l-5.84-5.48c-3-2.82-3-5.29-.1-8.3,3.13-3.23,5.57-3.38,8.46-.49q8.35,8.33,16.67,16.68c2.59,2.6,2.57,5,0,7.59q-8.4,8.43-16.83,16.83c-2.71,2.69-5.23,2.44-8.3-.75-2.79-2.9-2.84-5.39-.11-8,1.86-1.77,3.75-3.51,5.91-5.53-.87-.09-1.4-.19-1.92-.19-10.87,0-21.74,0-32.61,0C17.72,31.71,9,44.28,13.61,56.88a7.64,7.64,0,0,1-4.76,9.45,4.71,4.71,0,0,1-5.79-2.78A30.95,30.95,0,0,1,31,19.29C42.42,19.31,53.8,19.29,65.9,19.29Z"/></svg>