<svg id="Layer_1" data-name="Layer 1" xmlns="http://www.w3.org/2000/svg" viewBox="0 0 100 100"><title>icons</title><path d="M61.91,74.06c6.37,0,12.38.1,18.39,0a6,6,0,0,0,5.14-8.9c-1.48-2.73-3.24-5.31-4.86-8-1.25-2-1.06-3.08.88-4.36s3.69-2.3,5.52-3.45a2.28,2.28,0,0,1,3.43.66c2.32,3.67,5,7.23,6.64,11.19,4.93,11.72-3.59,24.57-16.39,25-5.36.18-10.73,0-16.09,0H61.91c0,2.85,0,5.58,0,8.3,0,1.59-.36,2.89-1.86,3.6s-2.8,0-3.89-1.07c-4.71-4.72-9.45-9.41-14.13-14.15-2-2.05-2-3.52.07-5.61,4.64-4.69,9.32-9.33,14-14,1.08-1.08,2.27-1.85,3.87-1.21s2,2.11,2,3.75C61.88,68.52,61.91,71.18,61.91,74.06Z"/><path d="M23.81,49.27c-3.42,5.56-6.91,10.81-9.95,16.3-2.1,3.8.87,8.27,5.34,8.46,3,.13,6.08,0,9.12,0,2.43,0,3.1.7,3.14,3.11,0,2.1,0,4.2,0,6.3,0,1.61-.71,2.74-2.41,2.72-4.33,0-8.72.2-13-.39C3.84,84.11-2.9,69.74,3.4,59.1,6.61,53.69,10,48.41,13.48,42.86c-2.34-1.47-4.59-2.89-6.86-4.3-1.34-.84-2.45-1.76-2.19-3.62S6,32.58,7.6,32.21c6.41-1.47,12.81-3,19.22-4.49,2.63-.61,4,.23,4.62,2.86,1.54,6.55,3,13.11,4.58,19.65.35,1.47.27,2.73-1,3.68a3.1,3.1,0,0,1-3.82-.09C28.79,52.31,26.39,50.87,23.81,49.27Z"/><path d="M62.79,28.58c-2.92-4.55-5.55-9-8.6-13.26a5.67,5.67,0,0,0-9,.14,59.31,59.31,0,0,0-3.58,5.44c-1,1.68-2.32,2.09-4,1-1.9-1.18-3.81-2.36-5.7-3.58-1.16-.76-1.85-1.9-1.05-3.14C33.15,11.5,35,7.45,38.73,4.72A18.1,18.1,0,0,1,64.87,9.17c2.79,4.21,5.42,8.54,8.26,13,2.31-1.47,4.51-2.84,6.68-4.25,1.42-.92,2.88-1.51,4.43-.44s1.28,2.58.91,4.12c-1.52,6.41-3,12.83-4.5,19.24-.61,2.55-1.88,3.37-4.43,2.79-6.57-1.47-13.12-3-19.67-4.54-1.41-.32-2.6-.89-2.89-2.54s.62-2.74,1.92-3.56C57.91,31.56,60.25,30.14,62.79,28.58Z"/></svg>