<svg id="Layer_1" data-name="Layer 1" xmlns="http://www.w3.org/2000/svg" viewBox="0 0 100 100"><title>icons</title><path d="M63.37,21.9a10.76,10.76,0,1,0-6.73,0V22c0,4.51-2.93,6.09-10.11,8.86C38.14,34.1,26.64,38.53,26.64,56V78.1a10.76,10.76,0,1,0,6.74,0V56c0-12.88,7.56-15.8,15.57-18.89a48,48,0,0,0,7.69-3.5V48.1a10.76,10.76,0,1,0,6.73,0ZM35.26,88.31A5.25,5.25,0,1,1,30,83.06,5.26,5.26,0,0,1,35.26,88.31Zm19.5-76.62A5.25,5.25,0,1,1,60,16.94,5.25,5.25,0,0,1,54.76,11.69ZM65.25,58.31A5.25,5.25,0,1,1,60,53.07,5.25,5.25,0,0,1,65.25,58.31Z"/></svg>