<svg id="Layer_1" data-name="Layer 1" xmlns="http://www.w3.org/2000/svg" viewBox="0 0 100 100"><title>icons</title><path d="M97.91,50.52A47.91,47.91,0,1,1,50,2.62,47.7,47.7,0,0,1,97.91,50.52Zm-40-5.85.58-.33H56.38c-10.62,0-21.23-.07-31.85.08-1.52,0-3.61.67-4.43,1.77-1.77,2.36-1.53,5.36-.48,8,.92,2.34,3.18,2.52,5.42,2.52q15.69,0,31.4,0H58.9c-.55.62-.77.9-1,1.14q-6.47,6.2-13,12.38c-2.56,2.42-2.68,4.89-.26,7.47a22.1,22.1,0,0,0,1.9,1.85,4.74,4.74,0,0,0,6.6-.23Q65.82,66.81,78.38,54.18c2.31-2.32,2.35-4.94.06-7.24Q65.9,34.31,53.23,21.8c-2.31-2.29-4.59-2.2-7,0-.6.55-1.18,1.12-1.73,1.71-2.1,2.24-2.12,4.6,0,6.84,1.63,1.69,3.45,3.22,5,4.95C52.42,38.38,55.14,41.54,57.91,44.67Z"/></svg>