<svg id="Layer_1" data-name="Layer 1" xmlns="http://www.w3.org/2000/svg" viewBox="0 0 100 100"><title>icons</title><path d="M73.72,23.22c0-3,0-5.71,0-8.4,0-2.12.73-3.85,2.73-4.63a4.66,4.66,0,0,1,5.28,1.21C86.49,16.18,91.3,20.91,96,25.73c2.2,2.24,2.17,4.72,0,7-4.73,4.81-9.53,9.55-14.3,14.33a4.57,4.57,0,0,1-5.28,1.12,4.45,4.45,0,0,1-2.68-4.46V35.17H71.08q-31.54,0-63.07,0c-2.17,0-4.32-.14-5.3-2.33a8.36,8.36,0,0,1,.15-7.59c.93-1.73,2.7-2.07,4.6-2.06,10.29,0,20.59,0,30.89,0H73.72Z"/><path d="M26,59.05h2.89q31.46,0,62.91,0c2.27,0,4.47.26,5.35,2.59A8.44,8.44,0,0,1,96.77,69c-1,1.72-2.78,2-4.65,2q-28.47,0-56.94,0H26c0,2.73-.05,5.33,0,7.93.06,2.26-.58,4.2-2.74,5.09s-4.08.08-5.74-1.62c-4.43-4.52-8.95-9-13.4-13.44-2.74-2.75-2.71-5.13,0-7.91,4.46-4.49,9-8.93,13.41-13.44,1.66-1.7,3.55-2.45,5.76-1.53S26,49,26,51.18C25.9,53.72,26,56.27,26,59.05Z"/></svg>